<?xml version="1.0" encoding="UTF-8"?>
<svg width="411px" height="55px" viewBox="0 0 411 55" version="1.1" xmlns="http://www.w3.org/2000/svg" xmlns:xlink="http://www.w3.org/1999/xlink">
    <!-- Generator: Sketch 61.2 (89653) - https://sketch.com -->
    <title>logo-long</title>
    <desc>Created with Sketch.</desc>
    <g id="Page-1" stroke="none" stroke-width="1" fill="none" fill-rule="evenodd">
        <g id="logo-long" fill-rule="nonzero">
            <g id="Group">
                <rect id="Rectangle" fill="#231F20" x="0.8" y="0.1" width="157.7" height="54.1"></rect>
                <g transform="translate(13.000000, 13.000000)" fill="#FFFFFF">
                    <path d="M24.9,27.5 L7.1,4.7 C4.5,7.3 3,10.8 3,14.6 C3,18.4 4.5,22.1 7.2,24.6 L8,25.4 L6.5,27.2 L5.7,26.4 C2.5,23.4 0.7,19.1 0.7,14.6 C0.7,10.1 2.5,5.8 5.7,2.8 L5.8,2.7 L7.6,1.6 L25,24 C27.4,21.5 28.7,18 28.7,14.5 C28.7,10.8 27.2,7.1 24.6,4.6 L23.8,3.8 L25.3,2 L26.1,2.8 C29.2,5.8 31,10.1 31,14.5 C31,18.9 29.2,23.2 26.1,26.2 L26.1,26.2 L24.9,27.5 Z" id="Path"></path>
                    <path d="M65.5,9.6 C62.8,4.3 58.3,1.2 52.9,0.7 L51.3,0.7 C45.6,1.2 40.6,4.5 37.9,9.6 C35.3,14.7 35.5,21 38.6,26 L39.7,27.8 L51.8,4.4 L63.7,27.8 L64.8,26 C68,21 68.2,14.7 65.5,9.6 Z M39.6,22.8 C38,18.9 38.1,14.5 40.1,10.7 C42.1,6.9 45.6,4.3 49.7,3.4 L39.6,22.8 Z M63.9,22.7 L53.9,3.2 C57.9,3.9 61.2,6.5 63.4,10.7 C65.3,14.4 65.5,18.9 63.9,22.7 Z" id="Shape"></path>
                    <g transform="translate(103.000000, 1.000000)" id="Path">
                        <path d="M0.9,9.1 L1.5,8.1 C4.2,3.2 9.3,0.1 14.7,0.1 C14.7,0.1 14.8,0.1 14.8,0.1 C20.1,0.1 25.2,3.1 28,7.9 L28.7,9.1 L26,9.1 C23.6,5 19.4,2.5 14.8,2.5 C14.8,2.5 14.7,2.5 14.7,2.5 C10.1,2.5 5.9,5 3.6,9.1 L0.9,9.1 Z"></path>
                        <path d="M15.8,27.9 C15.8,27.9 15.8,27.9 14.6,27.9 C13.4,27.9 13.4,27.9 13.4,27.9 L13.4,9.5 L15.8,9.5 L15.8,27.9 L15.8,27.9 Z"></path>
                    </g>
                    <g transform="translate(72.000000, 0.000000)">
                        <path d="M18.9,17.8 L18.6,15.4 L19.8,15.2 C20,15.2 20.2,15.1 20.3,15.1 L21.5,14.8 L22,17.1 L20.8,17.4 C20.6,17.5 20.3,17.5 20.1,17.5 L18.9,17.8 Z M11.1,17.8 L11.1,15.4 L13.1,15.4 L13.1,17.8 L11.1,17.8 Z M14.4,17.7 L14.4,15.3 L17.4,15.3 L17.4,17.7 L14.4,17.7 Z M23.9,16.1 L22.2,14.4 L22.9,13.7 C23,13.6 23.1,13.4 23.2,13.3 L23.9,12.4 L25.8,13.9 L25.1,14.8 C24.9,15 24.8,15.2 24.6,15.4 L23.9,16.1 Z M26.6,12.1 L24.2,11.8 L24.4,10.6 C24.4,10.4 24.4,10.2 24.5,10.1 L24.6,8.9 L27,9 L26.9,10.2 C26.9,10.5 26.9,10.7 26.8,10.9 L26.6,12.1 Z M24.4,8 L23.9,6.9 C23.8,6.7 23.7,6.6 23.7,6.4 L23.1,5.3 L25.2,4.2 L25.8,5.3 C25.9,5.5 26,5.7 26.1,6 L26.6,7.1 L24.4,8 Z M22.6,4.8 L21.6,4.2 C21.4,4.1 21.3,4 21.1,3.9 L20,3.3 L21.1,1.2 L22.2,1.8 C22.4,1.9 22.6,2 22.9,2.2 L23.9,2.8 L22.6,4.8 Z M19.2,3.2 L18,3.1 C17.8,3.1 17.6,3.1 17.4,3.1 L16.2,3.1 L16.3,0.7 L17.5,0.7 C17.7,0.7 18,0.7 18.2,0.7 L19.4,0.8 L19.2,3.2 Z M11,3.1 L10.9,0.7 L13,0.7 C13.2,0.7 13.4,0.7 13.7,0.7 L14.9,0.7 L15,3 L13.8,3 C13.6,3 13.4,3 13.2,3 L11,3.1 Z" id="Shape"></path>
                        <polygon id="Path" points="7.8 29 7.6 5 7.6 0.9 10 0.9 10 5 10.2 28.9"></polygon>
                        <path d="M6.4,27.5 L6.1,27.3 C5.9,27.2 5.7,27 5.6,26.8 L4.7,26 L6.3,24.2 L6.4,24.3 L6.4,27.5 L6.4,27.5 Z M3.7,24.8 L3,23.8 C2.9,23.6 2.7,23.4 2.6,23.2 L2,22.2 L4,21 L4.6,22 C4.7,22.2 4.8,22.3 4.9,22.5 L5.6,23.5 L3.7,24.8 Z M1.4,20.7 L1.1,19.6 C1,19.4 1,19.1 0.9,18.9 L0.6,17.7 L2.9,17.1 L3.2,18.3 C3.2,18.5 3.3,18.7 3.4,18.9 L3.7,20 L1.4,20.7 Z M0.4,16.1 L0.4,14.7 C0.4,14.5 0.4,14.4 0.4,14.2 L0.4,13 L2.8,13 L2.8,14.2 C2.8,14.4 2.8,14.5 2.8,14.7 L2.8,16 L0.4,16.1 Z M2.9,12.1 L0.6,11.5 L0.9,10.3 C1,10.1 1,9.8 1.1,9.6 L1.4,8.5 L3.7,9.2 L3.4,10.3 C3.3,10.5 3.3,10.7 3.2,10.9 L2.9,12.1 Z M4.1,8.3 L2.1,6.9 L2.8,5.9 C2.9,5.7 3.1,5.5 3.2,5.3 L3.9,4.4 L5.8,5.9 L5.1,6.8 C5,7 4.9,7.1 4.7,7.3 L4.1,8.3 Z M6.4,5 L5,3.4 L5.9,2.6 C6.1,2.5 6.2,2.4 6.4,2.2 L6.4,5 Z" id="Shape"></path>
                        <rect id="Rectangle" x="5.1" y="15.2" width="1.4" height="2.4"></rect>
                    </g>
                </g>
            </g>
            <g id="Group" transform="translate(171.000000, 1.000000)" fill="#231F20">
                <polygon id="Path" points="13.9 23.5 3.8 6.8 3.8 23.5 0.8 23.5 0.8 1.4 3.8 1.4 13.8 17.9 13.8 1.4 16.8 1.4 16.8 23.5"></polygon>
                <path d="M33.3,21.2 C32.3,22.9 30.1,23.8 28,23.8 C23.9,23.8 20.4,20.7 20.4,16 C20.4,11.2 23.9,8.2 28,8.2 C30.1,8.2 32.3,9.1 33.3,10.8 L33.3,8.6 L36.2,8.6 L36.2,23.6 L33.3,23.6 L33.3,21.2 Z M28.3,11 C25.6,11 23.4,12.9 23.4,15.9 C23.4,18.9 25.6,20.9 28.3,20.9 C31,20.9 33.3,19.1 33.3,15.9 C33.2,12.7 30.7,11 28.3,11 Z" id="Shape"></path>
                <polygon id="Path" points="41.6 30.8 44.7 23.1 38.7 8.6 41.8 8.6 46.3 19.5 50.8 8.6 53.9 8.6 44.6 30.9 41.6 30.9"></polygon>
                <path d="M70.2,17.1 L58,17.1 C58.4,19.6 60.3,21.2 62.8,21.2 C64.6,21.2 66.3,20.4 67.1,18.9 C67.9,19.2 68.8,19.5 69.6,19.9 C68.3,22.5 65.6,23.9 62.7,23.9 C58.4,23.9 55,20.8 55,16 C55,11.2 58.4,8.2 62.7,8.2 C67,8.2 70.1,11.2 70.1,16 C70.2,16.3 70.2,16.8 70.2,17.1 Z M67.3,14.8 C66.9,12.3 65.1,10.8 62.7,10.8 C60.2,10.8 58.3,12.3 57.9,14.8 L67.3,14.8 Z" id="Shape"></path>
                <polygon id="Path" points="76.4 0.3 76.4 23.4 73.5 23.4 73.5 0.3"></polygon>
                <path d="M82.2,1.1 C83.3,1.1 84.2,1.9 84.2,3 C84.2,4.1 83.3,4.9 82.2,4.9 C81.1,4.9 80.2,4.1 80.2,3 C80.2,1.9 81.1,1.1 82.2,1.1 Z M83.6,8.5 L80.7,8.5 L80.7,23.5 L83.6,23.5 L83.6,8.5 Z" id="Shape"></path>
                <path d="M98.2,17.9 L96,23.5 L92.8,23.5 L101.2,1.4 L104.4,1.4 L112.8,23.5 L109.7,23.5 L107.5,17.9 L98.2,17.9 Z M106.5,15.2 L102.8,5.4 L99.1,15.2 L106.5,15.2 Z" id="Shape"></path>
                <path d="M117,19.8 C118.2,19.8 119.1,20.7 119.1,21.8 C119.1,23 118.1,23.8 117,23.8 C115.9,23.8 114.9,23 114.9,21.8 C114.9,20.7 115.9,19.8 117,19.8 Z" id="Path"></path>
                <path d="M140.5,1.4 C145.2,1.4 147.1,4.9 147.1,8.3 C147.1,11.8 145.2,15.2 140.5,15.2 L134.7,15.2 L134.7,23.5 L131.7,23.5 L131.7,1.4 L140.5,1.4 Z M134.7,4.2 L134.7,12.5 L140.3,12.5 C143,12.5 144.1,10.4 144.1,8.4 C144.1,6.4 143,4.3 140.5,4.3 L134.7,4.3 L134.7,4.2 Z" id="Shape"></path>
                <path d="M163.6,15.9 C163.6,16.3 163.6,16.7 163.6,17.1 L151.4,17.1 C151.8,19.6 153.7,21.2 156.2,21.2 C158,21.2 159.7,20.4 160.5,18.9 C161.3,19.2 162.2,19.5 163,19.9 C161.7,22.5 159,23.9 156.1,23.9 C151.8,23.9 148.4,20.8 148.4,16 C148.4,11.2 151.8,8.2 156.1,8.2 C160.4,8.2 163.6,11.2 163.6,15.9 Z M151.4,14.8 L160.7,14.8 C160.3,12.3 158.5,10.8 156.1,10.8 C153.7,10.8 151.8,12.3 151.4,14.8 Z M160.6,0.8 L157.1,0.8 L154,5.7 L156.8,5.7 L160.6,0.8 Z" id="Shape"></path>
                <path d="M169.8,23.5 L166.9,23.5 L166.9,8.5 L169.8,8.5 L169.8,11.9 C170.6,9.3 172,8.2 174,8.2 C175.1,8.2 176.2,8.5 176.6,8.8 L176.1,11.5 C175.3,11.1 174.5,11 173.9,11 C171,11 169.8,14.1 169.8,18.1 L169.8,23.5 Z" id="Path"></path>
                <path d="M192.8,17.1 L180.6,17.1 C181,19.6 182.9,21.2 185.4,21.2 C187.2,21.2 188.9,20.4 189.7,18.9 C190.5,19.2 191.4,19.5 192.2,19.9 C190.9,22.5 188.2,23.9 185.3,23.9 C181,23.9 177.6,20.8 177.6,16 C177.6,11.2 181,8.2 185.3,8.2 C189.6,8.2 192.7,11.2 192.7,16 C192.8,16.3 192.8,16.8 192.8,17.1 Z M189.9,14.8 C189.5,12.3 187.7,10.8 185.3,10.8 C182.8,10.8 180.9,12.3 180.5,14.8 L189.9,14.8 Z" id="Shape"></path>
                <polygon id="Path" points="208.1 10.9 199 20.7 208.1 20.7 208.1 23.5 194.9 23.5 194.9 21.1 203.8 11.3 195.4 11.3 195.4 8.5 208.1 8.5"></polygon>
                <polygon id="Path" points="233.5 1.4 233.5 4.2 226.8 4.2 226.8 23.5 223.8 23.5 223.8 4.2 217.1 4.2 217.1 1.4"></polygon>
                <path d="M236.3,19.8 C237.5,19.8 238.4,20.7 238.4,21.8 C238.4,23 237.4,23.8 236.3,23.8 C235.2,23.8 234.2,23 234.2,21.8 C234.2,20.7 235.2,19.8 236.3,19.8 Z" id="Path"></path>
            </g>
            <g id="Group" transform="translate(170.000000, 35.000000)" fill="#231F20">
                <path d="M0.192000008,1.15200005 L5.0880002,1.15200005 C8.64000034,1.15200005 10.6560004,3.84000015 10.6560004,7.29600029 C10.6560004,10.7520004 8.64000034,13.4400005 5.0880002,13.4400005 L0.192000008,13.4400005 L0.192000008,1.15200005 Z M3.16800013,10.7520004 L5.0880002,10.7520004 C6.81600027,10.7520004 7.68000031,9.12000036 7.68000031,7.29600029 C7.68000031,5.47200022 6.81600027,3.74400015 5.0880002,3.74400015 L3.16800013,3.74400015 L3.16800013,10.7520004 Z" id="Shape"></path>
                <polygon id="Path" points="14.1120006 13.4400005 14.1120006 1.15200005 22.0800009 1.15200005 22.0800009 3.74400015 17.0880007 3.74400015 17.0880007 6.14400024 21.5040009 6.14400024 21.5040009 8.64000034 17.0880007 8.64000034 17.0880007 10.8480004 22.2720009 10.8480004 22.2720009 13.4400005"></polygon>
                <path d="M28.0320011,9.69600039 C28.0320011,10.3680004 28.5120011,10.8480004 29.5680012,10.8480004 C30.3360012,10.8480004 31.1040012,10.4640004 31.1040012,9.69600039 C31.1040012,9.50400038 31.1040012,9.12000036 29.8560012,8.64000034 L28.4160011,8.16000032 C25.632001,7.39200029 25.248001,5.66400023 25.248001,4.51200018 C25.248001,2.30400009 27.0720011,0.768000031 29.5680012,0.768000031 C31.9680013,0.768000031 33.7920013,2.20800009 33.7920013,4.60800018 L30.7200012,4.60800018 C30.7200012,3.93600016 30.3360012,3.45600014 29.4720012,3.45600014 C28.7040011,3.45600014 28.1280011,3.84000015 28.1280011,4.41600018 C28.1280011,4.60800018 28.2240011,5.0880002 29.2800012,5.37600021 L30.7200012,5.85600023 C33.9840014,6.81600027 34.0800014,8.73600035 34.0800014,9.60000038 C34.0800014,12.2880005 31.5840013,13.3440005 29.5680012,13.3440005 C26.7840011,13.3440005 25.056001,11.8080005 25.056001,9.50400038 L28.0320011,9.50400038 L28.0320011,9.69600039 Z" id="Path"></path>
                <polygon id="Path" points="37.5360015 1.15200005 40.5120016 1.15200005 40.5120016 13.4400005 37.5360015 13.4400005"></polygon>
                <path d="M52.8000021,4.9920002 C52.1280021,4.22400017 51.264002,3.74400015 50.208002,3.74400015 C48.2880019,3.74400015 46.8480019,5.37600021 46.8480019,7.29600029 C46.8480019,9.21600037 48.2880019,10.8480004 50.208002,10.8480004 C51.6480021,10.8480004 52.8000021,10.3680004 52.9920021,9.21600037 L49.536002,9.21600037 L49.536002,6.81600027 L56.2560022,6.81600027 C56.2560022,11.5200005 53.7600021,13.5360005 50.208002,13.5360005 C46.6560019,13.5360005 43.8720017,10.6560004 43.8720017,7.20000029 C43.8720017,3.74400015 46.6560019,0.864000034 50.208002,0.864000034 C52.2240021,0.864000034 53.9520021,1.72800007 55.0080022,3.07200012 L52.8000021,4.9920002 Z" id="Path"></path>
                <polygon id="Path" points="68.7360027 1.15200005 68.7360027 13.4400005 66.1440026 13.4400005 62.4000025 6.72000027 62.4000025 13.4400005 59.4240024 13.4400005 59.4240024 1.15200005 62.1120025 1.15200005 65.7600026 7.77600031 65.7600026 1.15200005"></polygon>
                <polygon id="Path" points="82.4640033 10.1760004 82.4640033 12.8640005 80.5440032 12.8640005 80.5440032 10.1760004 77.8560031 10.1760004 77.8560031 8.25600033 80.5440032 8.25600033 80.5440032 5.56800022 82.4640033 5.56800022 82.4640033 8.25600033 85.1520034 8.25600033 85.1520034 10.1760004"></polygon>
                <path d="M94.3680037,13.4400005 L94.3680037,1.15200005 L99.456004,1.15200005 C102.336004,1.15200005 103.680004,3.16800013 103.680004,5.28000021 C103.680004,7.39200029 102.336004,9.40800037 99.456004,9.40800037 L97.3440039,9.40800037 L97.3440039,13.4400005 L94.3680037,13.4400005 Z M97.3440039,3.74400015 L97.3440039,6.72000027 L99.2640039,6.72000027 C100.224004,6.72000027 100.608004,5.95200024 100.608004,5.18400021 C100.608004,4.41600018 100.224004,3.64800014 99.2640039,3.64800014 L97.3440039,3.64800014 L97.3440039,3.74400015 Z" id="Shape"></path>
                <polygon id="Path" points="113.376005 1.15200005 116.448005 1.15200005 116.448005 13.4400005 113.376005 13.4400005 113.376005 8.64000034 109.632004 8.64000034 109.632004 13.4400005 106.656004 13.4400005 106.656004 1.15200005 109.632004 1.15200005 109.632004 6.04800024 113.376005 6.04800024"></polygon>
                <path d="M126.144005,0.960000038 C129.600005,0.960000038 132.384005,3.74400015 132.384005,7.29600029 C132.384005,10.7520004 129.600005,13.6320005 126.144005,13.6320005 C122.688005,13.6320005 119.904005,10.7520004 119.904005,7.29600029 C119.808005,3.74400015 122.688005,0.960000038 126.144005,0.960000038 Z M126.144005,10.5600004 C127.968005,10.5600004 129.408005,9.12000036 129.408005,7.29600029 C129.408005,5.47200022 127.968005,3.93600016 126.144005,3.93600016 C124.320005,3.93600016 122.880005,5.37600021 122.880005,7.29600029 C122.880005,9.21600037 124.320005,10.5600004 126.144005,10.5600004 Z" id="Shape"></path>
                <polygon id="Path" points="134.688005 3.74400015 134.688005 1.15200005 144.000006 1.15200005 144.000006 3.74400015 140.832006 3.74400015 140.832006 13.4400005 137.856005 13.4400005 137.856005 3.74400015"></polygon>
                <path d="M152.448006,0.960000038 C155.904006,0.960000038 158.688006,3.74400015 158.688006,7.29600029 C158.688006,10.7520004 155.904006,13.6320005 152.448006,13.6320005 C148.992006,13.6320005 146.208006,10.7520004 146.208006,7.29600029 C146.208006,3.74400015 148.992006,0.960000038 152.448006,0.960000038 Z M152.448006,10.5600004 C154.272006,10.5600004 155.712006,9.12000036 155.712006,7.29600029 C155.712006,5.47200022 154.272006,3.93600016 152.448006,3.93600016 C150.624006,3.93600016 149.184006,5.37600021 149.184006,7.29600029 C149.184006,9.21600037 150.624006,10.5600004 152.448006,10.5600004 Z" id="Shape"></path>
                <path d="M170.400007,4.9920002 C169.728007,4.22400017 168.864007,3.74400015 167.808007,3.74400015 C165.888007,3.74400015 164.448007,5.37600021 164.448007,7.29600029 C164.448007,9.21600037 165.888007,10.8480004 167.808007,10.8480004 C169.248007,10.8480004 170.400007,10.3680004 170.592007,9.21600037 L167.136007,9.21600037 L167.136007,6.81600027 L173.856007,6.81600027 C173.856007,11.5200005 171.360007,13.5360005 167.808007,13.5360005 C164.256007,13.5360005 161.472006,10.6560004 161.472006,7.20000029 C161.472006,3.74400015 164.256007,0.864000034 167.808007,0.864000034 C169.824007,0.864000034 171.552007,1.72800007 172.608007,3.07200012 L170.400007,4.9920002 Z" id="Path"></path>
                <path d="M177.024007,13.4400005 L177.024007,1.15200005 L182.112007,1.15200005 C184.992007,1.15200005 186.336007,3.16800013 186.336007,5.28000021 C186.336007,7.00800028 185.376007,8.73600035 183.360007,9.21600037 L186.336007,13.4400005 L182.880007,13.4400005 L180.192007,9.31200037 L179.904007,9.31200037 L179.904007,13.4400005 L177.024007,13.4400005 Z M180.000007,3.74400015 L180.000007,6.72000027 L181.920007,6.72000027 C182.880007,6.72000027 183.264007,5.95200024 183.264007,5.18400021 C183.264007,4.41600018 182.880007,3.64800014 181.920007,3.64800014 L180.000007,3.64800014 L180.000007,3.74400015 Z" id="Shape"></path>
                <path d="M196.320008,10.5600004 L192.480008,10.5600004 L191.424008,13.3440005 L188.256007,13.3440005 L192.768008,1.05600004 L196.032008,1.05600004 L200.544008,13.3440005 L197.376008,13.3440005 L196.320008,10.5600004 Z M193.248008,7.96800032 L195.552008,7.96800032 L194.400008,3.93600016 L193.248008,7.96800032 Z" id="Shape"></path>
                <path d="M203.040008,13.4400005 L203.040008,1.15200005 L208.128008,1.15200005 C211.008008,1.15200005 212.352008,3.16800013 212.352008,5.28000021 C212.352008,7.39200029 211.008008,9.40800037 208.128008,9.40800037 L206.016008,9.40800037 L206.016008,13.4400005 L203.040008,13.4400005 Z M206.016008,3.74400015 L206.016008,6.72000027 L207.936008,6.72000027 C208.896008,6.72000027 209.280008,5.95200024 209.280008,5.18400021 C209.280008,4.41600018 208.896008,3.64800014 207.936008,3.64800014 L206.016008,3.64800014 L206.016008,3.74400015 Z" id="Shape"></path>
                <polygon id="Path" points="222.144009 1.15200005 225.216009 1.15200005 225.216009 13.4400005 222.144009 13.4400005 222.144009 8.64000034 218.400009 8.64000034 218.400009 13.4400005 215.424009 13.4400005 215.424009 1.15200005 218.400009 1.15200005 218.400009 6.04800024 222.144009 6.04800024"></polygon>
                <polygon id="Path" points="232.320009 13.4400005 232.320009 7.87200031 227.520009 1.15200005 231.072009 1.15200005 233.760009 5.56800022 236.544009 1.15200005 240.09601 1.15200005 235.296009 7.96800032 235.296009 13.4400005"></polygon>
            </g>
        </g>
    </g>
</svg>