<?xml version="1.0" encoding="utf-8"?>
<!-- Generator: Adobe Illustrator 22.1.0, SVG Export Plug-In . SVG Version: 6.00 Build 0)  -->
<svg version="1.1" id="Layer_1" xmlns="http://www.w3.org/2000/svg" xmlns:xlink="http://www.w3.org/1999/xlink" x="0px" y="0px"
	 viewBox="0 0 451 90" style="enable-background:new 0 0 451 90;" xml:space="preserve">
<style type="text/css">
	.st0{fill:#231F20;}
	.st1{fill:#FFFFFF;}
</style>
<g>
	<g>
		<rect x="17.8" y="21.1" class="st0" width="157.7" height="54.1"/>
		<g>
			<g>
				<path class="st1" d="M54.9,61.5L37.1,38.7c-2.6,2.6-4.1,6.1-4.1,9.9c0,3.8,1.5,7.5,4.2,10l0.8,0.8l-1.5,1.8l-0.8-0.8
					c-3.2-3-5-7.3-5-11.8s1.8-8.8,5-11.8l0.1-0.1l1.8-1.1l17.4,22.4c2.4-2.5,3.7-6,3.7-9.5c0-3.7-1.5-7.4-4.1-9.9l-0.8-0.8l1.5-1.8
					l0.8,0.8c3.1,3,4.9,7.3,4.9,11.7s-1.8,8.7-4.9,11.7l0,0L54.9,61.5z"/>
			</g>
			<path class="st1" d="M95.5,43.6c-2.7-5.3-7.2-8.4-12.6-8.9l-1.6,0c-5.7,0.5-10.7,3.8-13.4,8.9C65.3,48.7,65.5,55,68.6,60l1.1,1.8
				l12.1-23.4l11.9,23.4l1.1-1.8C98,55,98.2,48.7,95.5,43.6z M69.6,56.8c-1.6-3.9-1.5-8.3,0.5-12.1c2-3.8,5.5-6.4,9.6-7.3L69.6,56.8
				z M93.9,56.7l-10-19.5c4,0.7,7.3,3.3,9.5,7.5C95.3,48.4,95.5,52.9,93.9,56.7z"/>
			<g>
				<path class="st1" d="M133.9,44.1l0.6-1c2.7-4.9,7.8-8,13.2-8c0,0,0.1,0,0.1,0c5.3,0,10.4,3,13.2,7.8l0.7,1.2l-2.7,0
					c-2.4-4.1-6.6-6.6-11.2-6.6c0,0-0.1,0-0.1,0c-4.6,0-8.8,2.5-11.1,6.6L133.9,44.1z"/>
				<path class="st1" d="M148.8,62.9c0,0,0,0-1.2,0c-1.2,0-1.2,0-1.2,0V44.5h2.4V62.9z"/>
			</g>
			<g>
				<path class="st1" d="M120.9,51.8l-0.3-2.4l1.2-0.2c0.2,0,0.4-0.1,0.5-0.1l1.2-0.3l0.5,2.3l-1.2,0.3c-0.2,0.1-0.5,0.1-0.7,0.1
					L120.9,51.8z M113.1,51.8l0-2.4l2,0l0,2.4L113.1,51.8z M116.4,51.7l0-2.4l3,0l0,2.4L116.4,51.7z M125.9,50.1l-1.7-1.7l0.7-0.7
					c0.1-0.1,0.2-0.3,0.3-0.4l0.7-0.9l1.9,1.5l-0.7,0.9c-0.2,0.2-0.3,0.4-0.5,0.6L125.9,50.1z M128.6,46.1l-2.4-0.3l0.2-1.2
					c0-0.2,0-0.4,0.1-0.5l0.1-1.2l2.4,0.1l-0.1,1.2c0,0.3,0,0.5-0.1,0.7L128.6,46.1z M126.4,42l-0.5-1.1c-0.1-0.2-0.2-0.3-0.2-0.5
					l-0.6-1.1l2.1-1.1l0.6,1.1c0.1,0.2,0.2,0.4,0.3,0.7l0.5,1.1L126.4,42z M124.6,38.8l-1-0.6c-0.2-0.1-0.3-0.2-0.5-0.3l-1.1-0.6
					l1.1-2.1l1.1,0.6c0.2,0.1,0.4,0.2,0.7,0.4l1,0.6L124.6,38.8z M121.2,37.2l-1.2-0.1c-0.2,0-0.4,0-0.6,0l-1.2,0l0.1-2.4l1.2,0
					c0.2,0,0.5,0,0.7,0l1.2,0.1L121.2,37.2z M113,37.1l-0.1-2.4l2.1,0c0.2,0,0.4,0,0.7,0l1.2,0L117,37l-1.2,0c-0.2,0-0.4,0-0.6,0
					L113,37.1z"/>
				<polygon class="st1" points="109.8,63 109.6,39 109.6,34.9 112,34.9 112,39 112.2,62.9 				"/>
				<path class="st1" d="M108.4,61.5l-0.3-0.2c-0.2-0.1-0.4-0.3-0.5-0.5l-0.9-0.8l1.6-1.8l0.1,0.1V61.5z M105.7,58.8l-0.7-1
					c-0.1-0.2-0.3-0.4-0.4-0.6l-0.6-1l2-1.2l0.6,1c0.1,0.2,0.2,0.3,0.3,0.5l0.7,1L105.7,58.8z M103.4,54.7l-0.3-1.1
					c-0.1-0.2-0.1-0.5-0.2-0.7l-0.3-1.2l2.3-0.6l0.3,1.2c0,0.2,0.1,0.4,0.2,0.6l0.3,1.1L103.4,54.7z M102.4,50.1l0-1.4
					c0-0.2,0-0.3,0-0.5l0-1.2l2.4,0l0,1.2c0,0.2,0,0.3,0,0.5l0,1.3L102.4,50.1z M104.9,46.1l-2.3-0.6l0.3-1.2
					c0.1-0.2,0.1-0.5,0.2-0.7l0.3-1.1l2.3,0.7l-0.3,1.1c-0.1,0.2-0.1,0.4-0.2,0.6L104.9,46.1z M106.1,42.3l-2-1.4l0.7-1
					c0.1-0.2,0.3-0.4,0.4-0.6l0.7-0.9l1.9,1.5l-0.7,0.9c-0.1,0.2-0.2,0.3-0.4,0.5L106.1,42.3z M108.4,39l-1.4-1.6l0.9-0.8
					c0.2-0.1,0.3-0.2,0.5-0.4V39z"/>
				<rect x="107.1" y="49.2" class="st1" width="1.4" height="2.4"/>
			</g>
		</g>
	</g>
	<g>
		<path class="st0" d="M201.9,45.5l-10.1-16.7v16.7h-3V23.4h3l10,16.5V23.4h3v22.1H201.9z"/>
		<path class="st0" d="M221.3,43.2c-1,1.7-3.2,2.6-5.3,2.6c-4.1,0-7.6-3.1-7.6-7.8c0-4.8,3.5-7.8,7.6-7.8c2.1,0,4.3,0.9,5.3,2.6
			v-2.2h2.9v15h-2.9V43.2z M216.3,33c-2.7,0-4.9,1.9-4.9,4.9c0,3,2.2,5,4.9,5c2.7,0,5-1.8,5-5C221.2,34.7,218.7,33,216.3,33z"/>
		<path class="st0" d="M229.6,52.8l3.1-7.7l-6-14.5h3.1l4.5,10.9l4.5-10.9h3.1l-9.3,22.3H229.6z"/>
		<path class="st0" d="M258.2,39.1H246c0.4,2.5,2.3,4.1,4.8,4.1c1.8,0,3.5-0.8,4.3-2.3c0.8,0.3,1.7,0.6,2.5,1c-1.3,2.6-4,4-6.9,4
			c-4.3,0-7.7-3.1-7.7-7.9c0-4.8,3.4-7.8,7.7-7.8c4.3,0,7.4,3,7.4,7.8C258.2,38.3,258.2,38.8,258.2,39.1z M255.3,36.8
			c-0.4-2.5-2.2-4-4.6-4c-2.5,0-4.4,1.5-4.8,4H255.3z"/>
		<path class="st0" d="M264.4,22.3v23.1h-2.9V22.3H264.4z"/>
		<path class="st0" d="M270.2,23.1c1.1,0,2,0.8,2,1.9s-0.9,1.9-2,1.9c-1.1,0-2-0.8-2-1.9S269.1,23.1,270.2,23.1z M271.6,30.5h-2.9
			v15h2.9V30.5z"/>
		<path class="st0" d="M286.2,39.9l-2.2,5.6h-3.2l8.4-22.1h3.2l8.4,22.1h-3.1l-2.2-5.6H286.2z M294.5,37.2l-3.7-9.8l-3.7,9.8H294.5z
			"/>
		<path class="st0" d="M305,41.8c1.2,0,2.1,0.9,2.1,2c0,1.2-1,2-2.1,2c-1.1,0-2.1-0.8-2.1-2C302.9,42.7,303.9,41.8,305,41.8z"/>
		<path class="st0" d="M328.5,23.4c4.7,0,6.6,3.5,6.6,6.9c0,3.5-1.9,6.9-6.6,6.9h-5.8v8.3h-3V23.4H328.5z M322.7,26.2v8.3h5.6
			c2.7,0,3.8-2.1,3.8-4.1c0-2-1.1-4.1-3.6-4.1H322.7z"/>
		<path class="st0" d="M351.6,37.9c0,0.4,0,0.8,0,1.2h-12.2c0.4,2.5,2.3,4.1,4.8,4.1c1.8,0,3.5-0.8,4.3-2.3c0.8,0.3,1.7,0.6,2.5,1
			c-1.3,2.6-4,4-6.9,4c-4.3,0-7.7-3.1-7.7-7.9c0-4.8,3.4-7.8,7.7-7.8C348.4,30.2,351.6,33.2,351.6,37.9z M339.4,36.8h9.3
			c-0.4-2.5-2.2-4-4.6-4C341.7,32.8,339.8,34.3,339.4,36.8z M348.6,22.8h-3.5l-3.1,4.9h2.8L348.6,22.8z"/>
		<path class="st0" d="M357.8,45.5h-2.9v-15h2.9v3.4c0.8-2.6,2.2-3.7,4.2-3.7c1.1,0,2.2,0.3,2.6,0.6l-0.5,2.7
			c-0.8-0.4-1.6-0.5-2.2-0.5c-2.9,0-4.1,3.1-4.1,7.1V45.5z"/>
		<path class="st0" d="M380.8,39.1h-12.2c0.4,2.5,2.3,4.1,4.8,4.1c1.8,0,3.5-0.8,4.3-2.3c0.8,0.3,1.7,0.6,2.5,1c-1.3,2.6-4,4-6.9,4
			c-4.3,0-7.7-3.1-7.7-7.9c0-4.8,3.4-7.8,7.7-7.8c4.3,0,7.4,3,7.4,7.8C380.8,38.3,380.8,38.8,380.8,39.1z M377.9,36.8
			c-0.4-2.5-2.2-4-4.6-4c-2.5,0-4.4,1.5-4.8,4H377.9z"/>
		<path class="st0" d="M396.1,32.9l-9.1,9.8h9.1v2.8h-13.2v-2.4l8.9-9.8h-8.4v-2.8h12.7V32.9z"/>
		<path class="st0" d="M421.5,23.4v2.8h-6.7v19.3h-3V26.2h-6.7v-2.8H421.5z"/>
		<path class="st0" d="M424.3,41.8c1.2,0,2.1,0.9,2.1,2c0,1.2-1,2-2.1,2c-1.1,0-2.1-0.8-2.1-2C422.2,42.7,423.2,41.8,424.3,41.8z"/>
	</g>
	<g>
		<path class="st0" d="M187.2,56.2h5.1c3.7,0,5.8,2.8,5.8,6.4c0,3.6-2.1,6.4-5.8,6.4h-5.1V56.2z M190.3,66.2h2
			c1.8,0,2.7-1.7,2.7-3.6c0-1.9-0.9-3.7-2.7-3.7h-2V66.2z"/>
		<path class="st0" d="M201.7,69V56.2h8.3v2.7h-5.2v2.5h4.6V64h-4.6v2.3h5.4V69H201.7z"/>
		<path class="st0" d="M216.2,65.1c0,0.7,0.5,1.2,1.6,1.2c0.8,0,1.6-0.4,1.6-1.2c0-0.2,0-0.6-1.3-1.1l-1.5-0.5
			c-2.9-0.8-3.3-2.6-3.3-3.8c0-2.3,1.9-3.9,4.5-3.9c2.5,0,4.4,1.5,4.4,4H219c0-0.7-0.4-1.2-1.3-1.2c-0.8,0-1.4,0.4-1.4,1
			c0,0.2,0.1,0.7,1.2,1l1.5,0.5c3.4,1,3.5,3,3.5,3.9c0,2.8-2.6,3.9-4.7,3.9c-2.9,0-4.7-1.6-4.7-4H216.2z"/>
		<path class="st0" d="M226.1,56.2h3.1V69h-3.1V56.2z"/>
		<path class="st0" d="M242,60.2c-0.7-0.8-1.6-1.3-2.7-1.3c-2,0-3.5,1.7-3.5,3.7c0,2,1.5,3.7,3.5,3.7c1.5,0,2.7-0.5,2.9-1.7h-3.6
			v-2.5h7c0,4.9-2.6,7-6.3,7c-3.7,0-6.6-3-6.6-6.6c0-3.6,2.9-6.6,6.6-6.6c2.1,0,3.9,0.9,5,2.3L242,60.2z"/>
		<path class="st0" d="M258.6,56.2V69h-2.7l-3.9-7v7h-3.1V56.2h2.8l3.8,6.9v-6.9H258.6z"/>
		<path class="st0" d="M272.9,65.6v2.8h-2v-2.8h-2.8v-2h2.8v-2.8h2v2.8h2.8v2H272.9z"/>
		<path class="st0" d="M285.3,69V56.2h5.3c3,0,4.4,2.1,4.4,4.3c0,2.2-1.4,4.3-4.4,4.3h-2.2V69H285.3z M288.4,58.9V62h2
			c1,0,1.4-0.8,1.4-1.6c0-0.8-0.4-1.6-1.4-1.6H288.4z"/>
		<path class="st0" d="M305.1,56.2h3.2V69h-3.2v-5h-3.9v5h-3.1V56.2h3.1v5.1h3.9V56.2z"/>
		<path class="st0" d="M318.4,56c3.6,0,6.5,2.9,6.5,6.6c0,3.6-2.9,6.6-6.5,6.6c-3.6,0-6.5-3-6.5-6.6C311.8,58.9,314.8,56,318.4,56z
			 M318.4,66c1.9,0,3.4-1.5,3.4-3.4s-1.5-3.5-3.4-3.5s-3.4,1.5-3.4,3.5S316.5,66,318.4,66z"/>
		<path class="st0" d="M327.3,58.9v-2.7h9.7v2.7h-3.3V69h-3.1V58.9H327.3z"/>
		<path class="st0" d="M345.8,56c3.6,0,6.5,2.9,6.5,6.6c0,3.6-2.9,6.6-6.5,6.6c-3.6,0-6.5-3-6.5-6.6C339.3,58.9,342.2,56,345.8,56z
			 M345.8,66c1.9,0,3.4-1.5,3.4-3.4s-1.5-3.5-3.4-3.5s-3.4,1.5-3.4,3.5S343.9,66,345.8,66z"/>
		<path class="st0" d="M364.5,60.2c-0.7-0.8-1.6-1.3-2.7-1.3c-2,0-3.5,1.7-3.5,3.7c0,2,1.5,3.7,3.5,3.7c1.5,0,2.7-0.5,2.9-1.7h-3.6
			v-2.5h7c0,4.9-2.6,7-6.3,7c-3.7,0-6.6-3-6.6-6.6c0-3.6,2.9-6.6,6.6-6.6c2.1,0,3.9,0.9,5,2.3L364.5,60.2z"/>
		<path class="st0" d="M371.4,69V56.2h5.3c3,0,4.4,2.1,4.4,4.3c0,1.8-1,3.6-3.1,4.1l3.1,4.4h-3.6l-2.8-4.3h-0.3V69H371.4z
			 M374.5,58.9V62h2c1,0,1.4-0.8,1.4-1.6c0-0.8-0.4-1.6-1.4-1.6H374.5z"/>
		<path class="st0" d="M391.5,66h-4l-1.1,2.9h-3.3l4.7-12.8h3.4l4.7,12.8h-3.3L391.5,66z M388.3,63.3h2.4l-1.2-4.2L388.3,63.3z"/>
		<path class="st0" d="M398.5,69V56.2h5.3c3,0,4.4,2.1,4.4,4.3c0,2.2-1.4,4.3-4.4,4.3h-2.2V69H398.5z M401.6,58.9V62h2
			c1,0,1.4-0.8,1.4-1.6c0-0.8-0.4-1.6-1.4-1.6H401.6z"/>
		<path class="st0" d="M418.4,56.2h3.2V69h-3.2v-5h-3.9v5h-3.1V56.2h3.1v5.1h3.9V56.2z"/>
		<path class="st0" d="M429,69v-5.8l-5-7h3.7l2.8,4.6l2.9-4.6h3.7l-5,7.1V69H429z"/>
	</g>
</g>
</svg>
