<svg xmlns="http://www.w3.org/2000/svg" viewBox="0 0 89.49 89.49"><defs><style>.cls-1{fill:none;stroke:#231f20;stroke-miterlimit:10;}.cls-2{fill:#231f20;}</style></defs><title>logo-square</title><g id="Layer_2" data-name="Layer 2"><g id="Layer_2-2" data-name="Layer 2"><rect class="cls-1" x="0.5" y="0.5" width="88.49" height="88.49"/><polygon class="cls-2" points="12.17 64.41 12.17 63.89 12.2 62.34 15.3 62.4 15.27 63.95 15.26 64.41 15.28 66.11 12.18 66.13 12.17 64.41"/><path class="cls-2" d="M12.28,61.41l.38-1.5a7.15,7.15,0,0,1,.19-.7l.45-1.49,3,.91-.45,1.48-.15.54-.37,1.51Z"/><path class="cls-2" d="M13.79,56.75l.89-1.27.44-.58,1-1.22,2.21,1.74,0,.49-.71.91-.34.45-.89,1.27Z"/><path class="cls-2" d="M12.88,69.28c-.07-.23-.14-.46-.2-.69l-.38-1.5,3-.77.38,1.5c.05.18.1.37.16.55l.45,1.49-3,.9Z"/><path class="cls-2" d="M14.92,73.58l-.39-.6-.8-1.33,2.65-1.6.8,1.32c.1.16.2.33.31.49l.86,1.28-2.57,1.73Z"/><path class="cls-2" d="M18.1,77.11l-.54-.47-1.15-1,1.85-2v3.68Z"/><rect class="cls-2" x="16.87" y="64.44" width="1.56" height="3.1"/><path class="cls-2" d="M16.72,53.07l1.18-1,.4-.33,0,3.13Z"/><polygon class="cls-2" points="19.13 54.71 19.13 50.03 22.65 50.03 22.65 54.7 22.86 79.06 19.34 79.09 19.13 54.71"/><polygon class="cls-2" points="23.45 64.65 25.49 64.63 25.51 67.72 23.49 67.75 23.45 64.65"/><polygon class="cls-2" points="23.54 50.09 25.83 50.04 27.24 50 27.23 53.1 25.25 53.15 23.61 53.19 23.54 50.09"/><rect class="cls-2" x="26.08" y="64.62" width="3.75" height="3.1" transform="translate(-0.29 0.12) rotate(-0.25)"/><path class="cls-2" d="M30.05,53.13l-.56,0-1.54,0L28,50l1.55,0c.25,0,.49,0,.73,0l1.33.11-.25,3.09Z"/><path class="cls-2" d="M30.54,64.76l1.54-.2a4,4,0,0,0,.5-.09l.88-.19.74,3-1,.22c-.25,0-.51.1-.77.13l-1.54.2Z"/><path class="cls-2" d="M33.41,54.2,33,53.94l-1.29-.68,1.49-2.72,1.25.67a7.33,7.33,0,0,1,.67.39l1.14.74-1.67,2.6Z"/><path class="cls-2" d="M35.58,56.77a4,4,0,0,0-.22-.47L34.67,55l2.74-1.45.67,1.25c.13.23.24.47.35.71L39,56.85l-2.84,1.22Z"/><path class="cls-2" d="M33.7,64.13l.94-1,.32-.37.88-1.14,2.43,1.92-.87,1.12a7.72,7.72,0,0,1-.53.61l-.94,1Z"/><path class="cls-2" d="M35.84,61.52,36,60.16a4.43,4.43,0,0,0,.06-.51l.08-1.44,3.09.21-.08,1.41c0,.26,0,.52-.08.77L38.9,62Z"/><path class="cls-2" d="M34.11,41.88,16.91,19.7a13.32,13.32,0,0,0,.6,18.49l1.24,1.17L16.48,42,15.2,40.78a16.91,16.91,0,0,1,0-24.28l.11-.1L17.66,15l.3.4L34.84,37.19a13.41,13.41,0,0,0,3.1-8.55A13.21,13.21,0,0,0,34,19.2L32.79,18l2.3-2.6,1.26,1.22a16.91,16.91,0,0,1,0,24l-1.86,1.74Z"/><rect class="cls-2" x="61.62" y="59.21" width="3.52" height="19.38"/><path class="cls-2" d="M49.75,58a15.8,15.8,0,0,1,13.57-8.26h.12A15.81,15.81,0,0,1,77,57.8l1.21,2.07-4,0-.16-.29a12.39,12.39,0,0,0-10.64-6.32,12.09,12.09,0,0,0-10.63,6.3l-.16.29-3.95,0Z"/><path class="cls-2" d="M63.55,19.45l-12,23.17L50,40.21a16.92,16.92,0,0,1,13-25.8h1.66c5.51.46,10.09,3.69,12.89,9.07a17,17,0,0,1-.66,16.74l-1.51,2.43Zm-3.27-1.23a13.66,13.66,0,0,0-8.93,17.19l.1.33,9.16-17.63ZM75.46,35.71l.11-.34A13.79,13.79,0,0,0,74.67,25,13,13,0,0,0,66.73,18L66.41,18Z"/></g></g></svg>