<?xml version="1.0" encoding="utf-8"?>
<!-- Generator: Adobe Illustrator 22.1.0, SVG Export Plug-In . SVG Version: 6.00 Build 0)  -->
<svg version="1.1" id="Layer_1" xmlns="http://www.w3.org/2000/svg" xmlns:xlink="http://www.w3.org/1999/xlink" x="0px" y="0px"
	 viewBox="0 0 116 115" style="enable-background:new 0 0 116 115;" xml:space="preserve">
<style type="text/css">
	.st0{fill:#1C3D6F;}
	.st1{fill:#FFFFFF;}
</style>
<g>
	<rect x="13.8" y="13.3" class="st0" width="88.5" height="88.5"/>
	<g>
		<path class="st1" d="M49.7,29.2l-1-1l-1.8,2.1l1,0.9c2.6,2.5,4,6,4,9.7c0,3.4-1.3,6.7-3.5,9.1L31.3,28l-0.1-0.1l-2,1.2l-0.1,0.1
			c-3.2,3-5,7.4-5,11.9s1.8,8.8,5,11.9l1,1l1.8-2.1l-1-0.9c-2.6-2.5-4.2-6.1-4.2-9.8c0-3.6,1.4-7,3.8-9.5L48.1,54l0.1,0.2l1.6-1.5
			c3.1-3,4.9-7.3,4.9-11.7C54.6,36.6,52.9,32.3,49.7,29.2z"/>
		<path class="st1" d="M91,35.9c-2.8-5.3-7.3-8.5-12.7-9l-1.6,0c-5.7,0.5-10.8,3.9-13.5,8.9c-2.7,5.2-2.5,11.5,0.6,16.5l1.3,2.1
			l12-23.2L89,54.6l1.3-2.1C93.5,47.5,93.7,41.1,91,35.9z M89.1,48.6L79.7,30c3.7,0.8,6.8,3.3,8.8,7.2
			C90.3,40.8,90.6,44.9,89.1,48.6z M74.7,30.1l-9.6,18.5c-1.4-3.7-1.2-7.9,0.6-11.4C67.5,33.7,70.8,31.1,74.7,30.1z"/>
		<g>
			<path class="st1" d="M90.4,70.3c-2.8-4.8-7.9-7.9-13.3-7.9H77c-5.4,0-10.5,3.1-13.3,8.1L63,71.9l3.1,0l0.1-0.1
				c2.2-4,6.3-6.4,10.8-6.5l0.1,0c4.4,0,8.6,2.5,11,6.5l0.1,0.1l3.1,0L90.4,70.3z"/>
			<rect x="75.6" y="71.9" class="st1" width="2.8" height="18.7"/>
		</g>
		<g>
			<path class="st1" d="M44.6,79.8l-0.3-2.4l1.2-0.2c0.2,0,0.4-0.1,0.5-0.1l1.2-0.3l0.5,2.3l-1.2,0.3c-0.2,0.1-0.5,0.1-0.7,0.1
				L44.6,79.8z M36.8,79.7l0-2.4l2,0l0,2.4L36.8,79.7z M40.1,79.7l0-2.4l3,0l0,2.4L40.1,79.7z M49.6,78.1l-1.7-1.6l0.7-0.7
				c0.1-0.1,0.2-0.3,0.3-0.4l0.7-0.9l1.9,1.5l-0.7,0.9c-0.2,0.2-0.3,0.4-0.5,0.6L49.6,78.1z M52.2,74.1l-2.4-0.3l0.2-1.2
				c0-0.2,0-0.4,0.1-0.5l0.1-1.2l2.4,0.1l-0.1,1.2c0,0.2,0,0.5-0.1,0.7L52.2,74.1z M50,70.1L49.6,69c-0.1-0.2-0.2-0.3-0.2-0.5
				l-0.6-1l2.1-1.1l0.6,1c0.1,0.2,0.2,0.4,0.3,0.7l0.5,1.1L50,70.1z M48.3,66.9l-1-0.6c-0.1-0.1-0.3-0.2-0.5-0.3l-1.1-0.6l1.1-2.1
				l1.1,0.6c0.2,0.1,0.4,0.2,0.6,0.4l1,0.6L48.3,66.9z M44.9,65.2l-1.2-0.1c-0.2,0-0.4,0-0.6,0l-1.2,0l0.1-2.4l1.2,0
				c0.2,0,0.5,0,0.7,0l1.2,0.1L44.9,65.2z M36.8,65.2l-0.1-2.4l2.1,0c0.2,0,0.4,0,0.7,0l1.2,0l0.1,2.4l-1.2,0c-0.2,0-0.4,0-0.6,0
				L36.8,65.2z"/>
			<polygon class="st1" points="35.9,67.1 35.9,62.7 33.1,62.7 33.1,67.1 33.4,91.1 36.2,91.1 			"/>
			<path class="st1" d="M32.2,89.4L32,89.2c-0.2-0.1-0.4-0.3-0.5-0.5l-0.9-0.8l1.6-1.8l0.1,0.1V89.4z M29.5,86.7l-0.7-1
				c-0.1-0.2-0.3-0.4-0.4-0.6l-0.6-1l2-1.2l0.6,1c0.1,0.2,0.2,0.3,0.3,0.5l0.7,1L29.5,86.7z M27.2,82.7l-0.3-1.1
				c-0.1-0.2-0.1-0.5-0.2-0.7l-0.3-1.2l2.3-0.6l0.3,1.2c0,0.2,0.1,0.4,0.2,0.6l0.3,1.1L27.2,82.7z M26.2,78.1l0-1.4
				c0-0.2,0-0.3,0-0.5l0-1.2l2.4,0l0,1.2c0,0.2,0,0.3,0,0.5l0,1.3L26.2,78.1z M28.7,74.1l-2.3-0.6l0.3-1.2c0.1-0.2,0.1-0.5,0.2-0.7
				l0.3-1.1l2.3,0.7l-0.3,1.1c-0.1,0.2-0.1,0.4-0.2,0.6L28.7,74.1z M29.9,70.4L27.9,69l0.7-1c0.1-0.2,0.3-0.4,0.4-0.6l0.7-0.9
				l1.9,1.5l-0.7,0.9c-0.1,0.2-0.2,0.3-0.4,0.5L29.9,70.4z M32.2,67.1l-1.4-1.6l0.9-0.8c0.2-0.1,0.3-0.2,0.4-0.4V67.1z"/>
			<rect x="30.9" y="77.2" class="st1" width="1.4" height="2.4"/>
		</g>
	</g>
</g>
</svg>
