<?xml version="1.0" encoding="utf-8"?>
<!-- Generator: Adobe Illustrator 22.1.0, SVG Export Plug-In . SVG Version: 6.00 Build 0)  -->
<svg version="1.1" id="Layer_1" xmlns="http://www.w3.org/2000/svg" xmlns:xlink="http://www.w3.org/1999/xlink" x="0px" y="0px"
	 viewBox="0 0 274 173" style="enable-background:new 0 0 274 173;" xml:space="preserve">
<style type="text/css">
	.st0{fill:#231F20;}
	.st1{fill:#FFFFFF;}
</style>
<g>
	<g>
		<rect x="13.7" y="9.5" class="st0" width="88.5" height="88.5"/>
		<g>
			<path class="st1" d="M49.7,25.5l-1-1l-1.8,2.1l1,0.9c2.6,2.5,4,6,4,9.7c0,3.4-1.3,6.7-3.5,9.1L31.3,24.2l-0.1-0.1l-2,1.2
				l-0.1,0.1c-3.2,3-5,7.4-5,11.9s1.8,8.8,5,11.9l1,1l1.8-2.1l-1-0.9c-2.6-2.5-4.2-6.1-4.2-9.8c0-3.6,1.4-7,3.8-9.5L48,50.2l0.1,0.2
				l1.6-1.5c3.1-3,4.9-7.3,4.9-11.7C54.6,32.8,52.8,28.5,49.7,25.5z"/>
			<path class="st1" d="M91,32.1c-2.8-5.3-7.3-8.5-12.7-9l-1.6,0c-5.7,0.5-10.8,3.9-13.5,8.9c-2.7,5.2-2.5,11.5,0.6,16.5l1.3,2.1
				l12-23.2L89,50.8l1.3-2.1C93.4,43.7,93.7,37.3,91,32.1z M89.1,44.8l-9.5-18.6c3.7,0.8,6.8,3.3,8.8,7.2
				C90.3,37,90.6,41.1,89.1,44.8z M74.7,26.4l-9.6,18.5c-1.4-3.7-1.2-7.9,0.6-11.4C67.5,29.9,70.8,27.3,74.7,26.4z"/>
			<g>
				<path class="st1" d="M90.3,66.6c-2.8-4.8-7.9-7.9-13.3-7.9H77c-5.4,0-10.5,3.1-13.3,8.1L63,68.1l3.1,0l0.1-0.1
					c2.2-4,6.3-6.4,10.8-6.5l0.1,0c4.4,0,8.6,2.5,11,6.5l0.1,0.1l3.1,0L90.3,66.6z"/>
				<rect x="75.6" y="68.1" class="st1" width="2.8" height="18.7"/>
			</g>
			<g>
				<path class="st1" d="M44.6,76l-0.3-2.4l1.2-0.2c0.2,0,0.4-0.1,0.5-0.1l1.2-0.3l0.5,2.3l-1.2,0.3c-0.2,0.1-0.5,0.1-0.7,0.1
					L44.6,76z M36.8,76l0-2.4l2,0l0,2.4L36.8,76z M40.1,75.9l0-2.4l3,0l0,2.4L40.1,75.9z M49.6,74.3l-1.7-1.6l0.7-0.7
					c0.1-0.1,0.2-0.3,0.3-0.4l0.7-0.9l1.9,1.5L50.8,73c-0.2,0.2-0.3,0.4-0.5,0.6L49.6,74.3z M52.2,70.3L49.9,70l0.2-1.2
					c0-0.2,0-0.4,0.1-0.5l0.1-1.2l2.4,0.1l-0.1,1.2c0,0.2,0,0.5-0.1,0.7L52.2,70.3z M50,66.3l-0.5-1.1c-0.1-0.2-0.2-0.3-0.2-0.5
					l-0.6-1l2.1-1.1l0.6,1c0.1,0.2,0.2,0.4,0.3,0.7l0.5,1.1L50,66.3z M48.2,63.1l-1-0.6c-0.1-0.1-0.3-0.2-0.5-0.3l-1.1-0.6l1.1-2.1
					l1.1,0.6c0.2,0.1,0.4,0.2,0.6,0.4l1,0.6L48.2,63.1z M44.9,61.4l-1.2-0.1c-0.2,0-0.4,0-0.6,0l-1.2,0l0.1-2.4l1.2,0
					c0.2,0,0.5,0,0.7,0l1.2,0.1L44.9,61.4z M36.8,61.4L36.7,59l2.1,0c0.2,0,0.4,0,0.7,0l1.2,0l0.1,2.4l-1.2,0c-0.2,0-0.4,0-0.6,0
					L36.8,61.4z"/>
				<polygon class="st1" points="35.9,63.3 35.9,59 33.1,59 33.1,63.3 33.3,87.3 36.1,87.3 				"/>
				<path class="st1" d="M32.2,85.6L32,85.4c-0.2-0.1-0.4-0.3-0.5-0.5l-0.9-0.8l1.6-1.8l0.1,0.1V85.6z M29.5,82.9l-0.7-1
					c-0.1-0.2-0.3-0.4-0.4-0.6l-0.6-1l2-1.2l0.6,1c0.1,0.2,0.2,0.3,0.3,0.5l0.7,1L29.5,82.9z M27.2,78.9l-0.3-1.1
					c-0.1-0.2-0.1-0.5-0.2-0.7l-0.3-1.2l2.3-0.6l0.3,1.2c0,0.2,0.1,0.4,0.2,0.6l0.3,1.1L27.2,78.9z M26.2,74.3l0-1.4
					c0-0.2,0-0.3,0-0.5l0-1.2l2.4,0l0,1.2c0,0.2,0,0.3,0,0.5l0,1.3L26.2,74.3z M28.7,70.3l-2.3-0.6l0.3-1.2c0.1-0.2,0.1-0.5,0.2-0.7
					l0.3-1.1l2.3,0.7l-0.3,1.1c-0.1,0.2-0.1,0.4-0.2,0.6L28.7,70.3z M29.9,66.6l-1.9-1.4l0.7-1c0.1-0.2,0.3-0.4,0.4-0.6l0.7-0.9
					l1.9,1.5l-0.7,0.9c-0.1,0.2-0.2,0.3-0.4,0.5L29.9,66.6z M32.2,63.3l-1.4-1.6l0.9-0.8c0.2-0.1,0.3-0.2,0.4-0.4L32.2,63.3z"/>
				<rect x="30.9" y="73.4" class="st1" width="1.4" height="2.4"/>
			</g>
		</g>
	</g>
	<g>
		<path class="st0" d="M28.1,135.7l-10.6-17.5v17.5h-3.1v-23.3h3.1L28,129.8v-17.4h3.1v23.3H28.1z"/>
		<path class="st0" d="M48.5,133.3c-1,1.8-3.3,2.8-5.5,2.8c-4.3,0-8-3.2-8-8.2c0-5,3.7-8.2,8-8.2c2.2,0,4.5,0.9,5.5,2.7v-2.4h3v15.8
			h-3V133.3z M43.3,122.6c-2.8,0-5.1,2-5.1,5.2c0,3.1,2.3,5.3,5.1,5.3c2.8,0,5.2-1.9,5.2-5.3C48.5,124.4,45.8,122.6,43.3,122.6z"/>
		<path class="st0" d="M57.3,143.4l3.3-8.1l-6.3-15.3h3.3l4.7,11.4l4.7-11.4h3.3l-9.8,23.5H57.3z"/>
		<path class="st0" d="M87.4,129H74.6c0.4,2.6,2.4,4.3,5.1,4.3c1.9,0,3.7-0.9,4.5-2.4c0.8,0.3,1.8,0.7,2.6,1
			c-1.4,2.8-4.2,4.2-7.3,4.2c-4.5,0-8.1-3.3-8.1-8.3s3.6-8.2,8.1-8.2s7.8,3.2,7.8,8.2C87.4,128.1,87.4,128.6,87.4,129z M84.4,126.6
			c-0.4-2.6-2.3-4.2-4.8-4.2c-2.6,0-4.6,1.6-5,4.2H84.4z"/>
		<path class="st0" d="M93.9,111.3v24.4h-3.1v-24.4H93.9z"/>
		<path class="st0" d="M100.1,112.1c1.2,0,2.1,0.8,2.1,2c0,1.1-0.9,2-2.1,2c-1.1,0-2.1-0.8-2.1-2C97.9,113,98.9,112.1,100.1,112.1z
			 M101.6,119.9h-3v15.8h3V119.9z"/>
		<path class="st0" d="M116.9,129.8l-2.3,5.9h-3.3l8.9-23.3h3.4l8.8,23.3H129l-2.3-5.9H116.9z M125.6,126.9l-3.9-10.3l-3.9,10.3
			H125.6z"/>
		<path class="st0" d="M136.7,131.8c1.2,0,2.2,0.9,2.2,2.1s-1,2.1-2.2,2.1c-1.2,0-2.2-0.9-2.2-2.1S135.5,131.8,136.7,131.8z"/>
		<path class="st0" d="M161.4,112.4c4.9,0,6.9,3.7,6.9,7.3c0,3.7-2,7.3-6.9,7.3h-6.1v8.7h-3.2v-23.3H161.4z M155.3,115.4v8.7h5.9
			c2.8,0,4-2.2,4-4.3c0-2.1-1.1-4.4-3.8-4.4H155.3z"/>
		<path class="st0" d="M185.7,127.8c0,0.4,0,0.9,0,1.2h-12.8c0.4,2.6,2.4,4.3,5.1,4.3c1.9,0,3.7-0.9,4.5-2.4c0.8,0.3,1.8,0.7,2.6,1
			c-1.4,2.8-4.2,4.2-7.3,4.2c-4.5,0-8.1-3.3-8.1-8.3s3.6-8.2,8.1-8.2S185.7,122.8,185.7,127.8z M172.9,126.6h9.8
			c-0.4-2.6-2.3-4.2-4.8-4.2C175.3,122.4,173.3,123.9,172.9,126.6z M182.6,111.8h-3.7l-3.3,5.2h2.9L182.6,111.8z"/>
		<path class="st0" d="M192.2,135.7h-3.1v-15.8h3.1v3.5c0.8-2.8,2.3-3.9,4.4-3.9c1.1,0,2.3,0.3,2.7,0.6l-0.5,2.9
			c-0.8-0.4-1.7-0.5-2.3-0.5c-3,0-4.3,3.2-4.3,7.4V135.7z"/>
		<path class="st0" d="M216.4,129h-12.8c0.4,2.6,2.4,4.3,5.1,4.3c1.9,0,3.7-0.9,4.5-2.4c0.8,0.3,1.8,0.7,2.6,1
			c-1.4,2.8-4.2,4.2-7.3,4.2c-4.5,0-8.1-3.3-8.1-8.3s3.6-8.2,8.1-8.2s7.8,3.2,7.8,8.2C216.5,128.1,216.5,128.6,216.4,129z
			 M213.4,126.6c-0.4-2.6-2.3-4.2-4.8-4.2c-2.6,0-4.6,1.6-5,4.2H213.4z"/>
		<path class="st0" d="M232.6,122.5l-9.6,10.3h9.6v2.9h-13.9v-2.5l9.4-10.3h-8.9v-2.9h13.4V122.5z"/>
		<path class="st0" d="M259.3,112.4v3h-7.1v20.3h-3.2v-20.3H242v-3H259.3z"/>
		<path class="st0" d="M262.3,131.8c1.2,0,2.2,0.9,2.2,2.1s-1,2.1-2.2,2.1c-1.2,0-2.2-0.9-2.2-2.1S261.1,131.8,262.3,131.8z"/>
	</g>
	<g>
		<path class="st0" d="M15.4,148.5h5.1c3.7,0,5.8,2.8,5.8,6.4c0,3.6-2.1,6.4-5.8,6.4h-5.1V148.5z M18.5,158.6h2
			c1.8,0,2.7-1.7,2.7-3.6c0-1.9-0.9-3.7-2.7-3.7h-2V158.6z"/>
		<path class="st0" d="M29.9,161.3v-12.8h8.3v2.7H33v2.5h4.6v2.7H33v2.3h5.4v2.7H29.9z"/>
		<path class="st0" d="M44.4,157.5c0,0.7,0.5,1.2,1.6,1.2c0.8,0,1.6-0.4,1.6-1.2c0-0.2,0-0.6-1.3-1.1l-1.5-0.5
			c-2.9-0.8-3.3-2.6-3.3-3.8c0-2.3,1.9-3.9,4.5-3.9c2.5,0,4.4,1.5,4.4,4h-3.1c0-0.7-0.4-1.2-1.3-1.2c-0.8,0-1.4,0.4-1.4,1
			c0,0.2,0.1,0.7,1.2,1l1.5,0.5c3.4,1,3.5,3,3.5,3.9c0,2.8-2.6,3.9-4.7,3.9c-2.9,0-4.7-1.6-4.7-4H44.4z"/>
		<path class="st0" d="M54.2,148.5h3.1v12.8h-3.1V148.5z"/>
		<path class="st0" d="M70.1,152.6c-0.7-0.8-1.6-1.3-2.7-1.3c-2,0-3.5,1.7-3.5,3.7c0,2,1.5,3.7,3.5,3.7c1.5,0,2.7-0.5,2.9-1.7h-3.6
			v-2.5h7c0,4.9-2.6,7-6.3,7c-3.7,0-6.6-3-6.6-6.6c0-3.6,2.9-6.6,6.6-6.6c2.1,0,3.9,0.9,5,2.3L70.1,152.6z"/>
		<path class="st0" d="M86.8,148.5v12.8H84l-3.9-7v7H77v-12.8h2.8l3.8,6.9v-6.9H86.8z"/>
		<path class="st0" d="M101.1,158v2.8h-2V158h-2.8v-2h2.8v-2.8h2v2.8h2.8v2H101.1z"/>
		<path class="st0" d="M113.4,161.3v-12.8h5.3c3,0,4.4,2.1,4.4,4.3c0,2.2-1.4,4.3-4.4,4.3h-2.2v4.3H113.4z M116.5,151.2v3.1h2
			c1,0,1.4-0.8,1.4-1.6c0-0.8-0.4-1.6-1.4-1.6H116.5z"/>
		<path class="st0" d="M133.3,148.5h3.2v12.8h-3.2v-5h-3.9v5h-3.1v-12.8h3.1v5.1h3.9V148.5z"/>
		<path class="st0" d="M146.5,148.4c3.6,0,6.5,2.9,6.5,6.6c0,3.6-2.9,6.6-6.5,6.6c-3.6,0-6.5-3-6.5-6.6
			C140,151.3,142.9,148.4,146.5,148.4z M146.5,158.4c1.9,0,3.4-1.5,3.4-3.4s-1.5-3.5-3.4-3.5s-3.4,1.5-3.4,3.5
			S144.6,158.4,146.5,158.4z"/>
		<path class="st0" d="M155.4,151.2v-2.7h9.7v2.7h-3.3v10.1h-3.1v-10.1H155.4z"/>
		<path class="st0" d="M174,148.4c3.6,0,6.5,2.9,6.5,6.6c0,3.6-2.9,6.6-6.5,6.6c-3.6,0-6.5-3-6.5-6.6
			C167.5,151.3,170.4,148.4,174,148.4z M174,158.4c1.9,0,3.4-1.5,3.4-3.4s-1.5-3.5-3.4-3.5s-3.4,1.5-3.4,3.5S172.1,158.4,174,158.4z
			"/>
		<path class="st0" d="M192.6,152.6c-0.7-0.8-1.6-1.3-2.7-1.3c-2,0-3.5,1.7-3.5,3.7c0,2,1.5,3.7,3.5,3.7c1.5,0,2.7-0.5,2.9-1.7h-3.6
			v-2.5h7c0,4.9-2.6,7-6.3,7c-3.7,0-6.6-3-6.6-6.6c0-3.6,2.9-6.6,6.6-6.6c2.1,0,3.9,0.9,5,2.3L192.6,152.6z"/>
		<path class="st0" d="M199.5,161.3v-12.8h5.3c3,0,4.4,2.1,4.4,4.3c0,1.8-1,3.6-3.1,4.1l3.1,4.4h-3.6l-2.8-4.3h-0.3v4.3H199.5z
			 M202.6,151.2v3.1h2c1,0,1.4-0.8,1.4-1.6c0-0.8-0.4-1.6-1.4-1.6H202.6z"/>
		<path class="st0" d="M219.6,158.4h-4l-1.1,2.9h-3.3l4.7-12.8h3.4l4.7,12.8h-3.3L219.6,158.4z M216.4,155.7h2.4l-1.2-4.2
			L216.4,155.7z"/>
		<path class="st0" d="M226.6,161.3v-12.8h5.3c3,0,4.4,2.1,4.4,4.3c0,2.2-1.4,4.3-4.4,4.3h-2.2v4.3H226.6z M229.7,151.2v3.1h2
			c1,0,1.4-0.8,1.4-1.6c0-0.8-0.4-1.6-1.4-1.6H229.7z"/>
		<path class="st0" d="M246.5,148.5h3.2v12.8h-3.2v-5h-3.9v5h-3.1v-12.8h3.1v5.1h3.9V148.5z"/>
		<path class="st0" d="M257.1,161.3v-5.8l-5-7h3.7l2.8,4.6l2.9-4.6h3.7l-5,7.1v5.7H257.1z"/>
	</g>
</g>
</svg>
