<svg xmlns="http://www.w3.org/2000/svg" viewBox="0 0 354.66 124.46"><title>logo</title><g id="Layer_2" data-name="Layer 2"><g id="Layer_1-2" data-name="Layer 1"><path d="M103.11,49.73a37.12,37.12,0,0,0,1.44,36.77L134,29.75A37.14,37.14,0,0,0,103.11,49.73Z"/><path d="M164.55,49.73a37.12,37.12,0,0,1-1.44,36.77L133.65,29.75A37.14,37.14,0,0,1,164.55,49.73Z"/><path d="M77.66,65.61A37.36,37.36,0,0,0,60.66,35V86.15L28.39,33.63s-2.79.93-7.45,4.49C11.88,45.06,7.66,54.32,7.66,65.4a34.68,34.68,0,0,0,17,29.83v-51L56.82,97.16s3.58-1,8.57-5.23C74.59,84.17,77.66,76.4,77.66,65.61Z"/><path d="M227.53,28.84c-.2,0-4.95-.1-5.39,0a5.49,5.49,0,0,0,1.27,10.87c.7,0,1.39,0,2.09.06l1.73.06h.14A5.41,5.41,0,0,0,233,34.55,5.47,5.47,0,0,0,227.53,28.84Z"/><path d="M240.6,42.79c.91.7,1.84,1.39,2.77,2.07l.6.44a5.64,5.64,0,0,0,3.35,1.1,5.44,5.44,0,0,0,4-1.71,5.32,5.32,0,0,0,0-7.48,23,23,0,0,0-5.11-3.76,5.16,5.16,0,0,0-5.1.16,5.51,5.51,0,0,0-2.67,4.78A5.33,5.33,0,0,0,240.6,42.79Z"/><path d="M245.5,70.34a8,8,0,0,0-2.93,1.29l-.09.06a21.7,21.7,0,0,0-1.94,1.38c-.4.3-.8.61-1.21.89a5.54,5.54,0,0,0,3.06,10.12,5.06,5.06,0,0,0,2.57-.69A31,31,0,0,0,249.64,80a5.36,5.36,0,0,0,1.23-6.13C250,71.81,248,70,245.5,70.34Z"/><path d="M258,56.41A5.34,5.34,0,0,0,252.55,51h0a5.4,5.4,0,0,0-5.48,5.31c0,.37-.05,1.25-.08,2.12s-.07,1.64-.08,2a5.41,5.41,0,0,0,4.82,5.79,5.47,5.47,0,0,0,6.09-4.76A38.64,38.64,0,0,0,258,56.41Z"/><path d="M227.11,76a18.6,18.6,0,0,0-2.75-.35,5.49,5.49,0,0,0-1.22,10.9c.59.09,1.18.17,1.64.22l.51.07h.34A5.49,5.49,0,0,0,227.11,76Z"/><rect x="200.66" y="29.9" width="10" height="66.33"/><rect width="354.66" height="8.12"/><rect y="116.34" width="354.66" height="8.12"/><path d="M287.89,46.22c7-9.61,16.13-14.81,27.77-15.24a34,34,0,0,1,29.65,15.24Z"/><path d="M317.37,54.32c1.8,15.2,3.58,30.25,5.37,45.45a35.37,35.37,0,0,1-13.6-.29l.91-8.4q1.27-11.37,2.54-22.74c.49-4.4,1-8.8,1.44-13.21.07-.61.31-.84.9-.82C315.69,54.34,316.44,54.32,317.37,54.32Z"/></g></g></svg>