<svg width="29" height="29" viewBox="0 0 29 29" fill="none" xmlns="http://www.w3.org/2000/svg">
<path d="M14.1912 22.1014C14.1948 22.1217 14.3895 23.2276 14.4549 23.6854C14.5207 24.1485 14.1248 28.1561 14.1248 28.1561C14.1243 28.1504 13.729 24.1482 13.7947 23.6854C13.8603 23.2261 14.1873 22.1146 14.1912 22.1014ZM8.26642 0.322082C8.34474 0.1832 8.50924 0.116974 8.66193 0.162902L9.30548 0.356262C9.39477 0.38312 9.46937 0.44595 9.51154 0.529113L14.0457 9.46954L18.7606 0.622863C18.8044 0.540622 18.8798 0.479964 18.9695 0.454894L19.618 0.27423C19.7715 0.231557 19.9341 0.300857 20.0096 0.441223L20.3279 1.03302C20.3721 1.11513 20.3803 1.21199 20.3514 1.3006L17.2342 10.8299L26.825 7.90704C26.9142 7.87986 27.0114 7.89054 27.0926 7.93634L27.6785 8.26642C27.8172 8.34481 27.8826 8.50935 27.8367 8.66193L27.6434 9.30548C27.6165 9.39477 27.5537 9.46937 27.4705 9.51154L18.5291 14.0457L27.3768 18.7606C27.459 18.8044 27.5196 18.8798 27.5447 18.9695L27.7254 19.618C27.7681 19.7715 27.6988 19.9341 27.5584 20.0096L26.9666 20.3279C26.8845 20.3721 26.7877 20.3804 26.699 20.3514L17.1697 17.2352L20.0926 26.825C20.1198 26.9142 20.1091 27.0114 20.0633 27.0926L19.7332 27.6785C19.6548 27.8172 19.4903 27.8826 19.3377 27.8367L18.6942 27.6434C18.6049 27.6165 18.5303 27.5537 18.4881 27.4705L13.9529 18.5291L9.23907 27.3768C9.19523 27.4591 9.1199 27.5207 9.03009 27.5457L8.38165 27.7264C8.2283 27.7689 8.06556 27.6995 7.99005 27.5594L7.67169 26.9666C7.62754 26.8845 7.61927 26.7877 7.64825 26.699L10.7635 17.1697L1.17462 20.0926C1.08546 20.1198 0.989219 20.1091 0.908019 20.0633L0.322082 19.7332C0.1832 19.6549 0.116974 19.4904 0.162902 19.3377L0.356262 18.6942C0.38312 18.6049 0.44595 18.5303 0.529113 18.4881L9.46954 13.9529L0.622863 9.23907C0.540623 9.19525 0.479964 9.11984 0.454894 9.03009L0.27423 8.38165C0.231556 8.22814 0.300857 8.0655 0.441223 7.99005L1.03302 7.67169C1.11514 7.62755 1.21198 7.61928 1.3006 7.64825L10.8299 10.7645L7.90704 1.17462C7.87988 1.08548 7.89061 0.989205 7.93634 0.908019L8.26642 0.322082ZM19.4256 19.4246C19.4426 19.4339 20.4548 19.9878 20.825 20.2654C21.1987 20.546 23.7537 23.66 23.7537 23.66C23.7537 23.66 20.6382 21.1046 20.3582 20.7313C20.0785 20.3582 19.4276 19.4275 19.4256 19.4246ZM9.30157 18.8895C9.30157 18.8895 8.64803 19.8227 8.36798 20.1961C8.08797 20.5695 4.97345 23.1248 4.97345 23.1248C4.97345 23.1248 7.52784 20.0093 7.90118 19.7293C8.27457 19.4493 9.30157 18.8895 9.30157 18.8895ZM4.62677 14.076C5.08518 14.1415 6.19359 14.4674 6.21075 14.4725C6.19239 14.4757 5.08493 14.6707 4.62677 14.7361C4.16387 14.802 0.156066 14.4061 0.156066 14.4061C0.169861 14.4047 4.16419 14.0103 4.62677 14.076ZM23.6854 14.076C24.1479 14.0103 28.1423 14.4047 28.1561 14.4061C28.1561 14.4061 24.1483 14.802 23.6854 14.7361C23.2272 14.6707 22.1197 14.4757 22.1014 14.4725C22.1185 14.4674 23.2269 14.1415 23.6854 14.076ZM4.97345 4.97345C5.00199 4.99686 8.08862 7.52908 8.36798 7.90118C8.64642 8.27243 9.29429 9.19742 9.30157 9.20782C9.30157 9.20782 8.27453 8.64799 7.90118 8.36798C7.52908 8.08862 4.99686 5.00199 4.97345 4.97345ZM23.7537 4.97345C23.7537 4.97345 21.1984 8.08797 20.825 8.36798C20.4561 8.64463 19.4499 9.19458 19.4256 9.20782C19.4405 9.1866 20.0814 8.27022 20.3582 7.90118C20.6382 7.52784 23.7537 4.97345 23.7537 4.97345ZM14.1248 0.156066C14.1248 0.156066 14.5207 4.16367 14.4549 4.62677C14.4098 4.94258 14.3031 5.56707 14.2401 5.93048C14.2117 6.0938 14.1923 6.20446 14.1912 6.21075C14.19 6.20662 14.1565 6.09553 14.1102 5.93048C14.0081 5.56706 13.8399 4.94256 13.7947 4.62677C13.729 4.16392 14.1243 0.161708 14.1248 0.156066Z" fill="#2F593E"/>
</svg>
