<svg width="32" height="32" viewBox="0 0 32 32" fill="none" xmlns="http://www.w3.org/2000/svg">
<path d="M14.125 13.4432L15.1351 1.82728C15.1432 1.73439 15.1889 1.64886 15.2617 1.59061L15.787 1.17037C15.9115 1.07077 16.0885 1.07077 16.213 1.17037L16.7383 1.59061C16.8111 1.64886 16.8568 1.73439 16.8649 1.82728L17.875 13.4432V16H14.125V13.4432Z" fill="#2F593E"/>
<path d="M17.8745 18.5568L16.8644 30.1727C16.8564 30.2656 16.8106 30.3511 16.7378 30.4094L16.2125 30.8296C16.088 30.9292 15.9111 30.9292 15.7865 30.8296L15.2613 30.4094C15.1884 30.3511 15.1427 30.2656 15.1346 30.1727L14.1245 18.5568L14.1245 16L17.8745 16L17.8745 18.5568Z" fill="#2F593E"/>
<path d="M18.5568 14.125L30.1727 15.1351C30.2656 15.1432 30.3511 15.1889 30.4094 15.2617L30.8296 15.787C30.9292 15.9115 30.9292 16.0885 30.8296 16.213L30.4094 16.7383C30.3511 16.8111 30.2656 16.8568 30.1727 16.8649L18.5568 17.875L16 17.875L16 14.125L18.5568 14.125Z" fill="#2F593E"/>
<path d="M13.4432 17.8745L1.82728 16.8644C1.73439 16.8564 1.64886 16.8106 1.59061 16.7378L1.17037 16.2125C1.07077 16.088 1.07077 15.9111 1.17037 15.7865L1.59061 15.2613C1.64886 15.1884 1.73439 15.1427 1.82728 15.1346L13.4432 14.1245L16 14.1245L16 17.8745L13.4432 17.8745Z" fill="#2F593E"/>
<path d="M15.5179 19.1335L6.58998 26.6329C6.51858 26.6929 6.42574 26.721 6.33306 26.7107L5.66447 26.6364C5.506 26.6188 5.3809 26.4937 5.3633 26.3352L5.28901 25.6667C5.27871 25.574 5.30682 25.4811 5.3668 25.4097L12.8662 16.4818L14.6742 14.6739L17.3258 17.3255L15.5179 19.1335Z" fill="#2F593E"/>
<path d="M16.4826 12.866L25.4105 5.36659C25.4819 5.30662 25.5748 5.27851 25.6674 5.2888L26.336 5.36309C26.4945 5.3807 26.6196 5.5058 26.6372 5.66427L26.7115 6.33286C26.7218 6.42553 26.6937 6.51838 26.6337 6.58977L19.1342 15.5177L17.3263 17.3256L14.6746 14.674L16.4826 12.866Z" fill="#2F593E"/>
<path d="M16.4821 19.1335L25.41 26.6329C25.4814 26.6929 25.5743 26.721 25.6669 26.7107L26.3355 26.6364C26.494 26.6188 26.6191 26.4937 26.6367 26.3352L26.711 25.6667C26.7213 25.574 26.6932 25.4811 26.6332 25.4097L19.1338 16.4818L17.3258 14.6739L14.6742 17.3255L16.4821 19.1335Z" fill="#2F593E"/>
<path d="M15.5174 12.866L6.58949 5.36659C6.51809 5.30662 6.42525 5.27851 6.33257 5.2888L5.66398 5.36309C5.50551 5.3807 5.38041 5.5058 5.36281 5.66427L5.28852 6.33286C5.27822 6.42553 5.30633 6.51838 5.36631 6.58977L12.8658 15.5177L14.6737 17.3256L17.3254 14.674L15.5174 12.866Z" fill="#2F593E"/>
</svg>
